<svg xmlns="http://www.w3.org/2000/svg" width="1241.33" height= "176.79" viewBox="0 0 1241.33 176.79"><defs><style>.cls-1{fill:#ed3326;}.cls-2{fill:#ed3225;}</style></defs><title>Asset 1</title><g id="Layer_2" data-name="Layer 2"><g id="Layer_1-2" data-name="Layer 1"><path class="cls-1" d="M903.77,78.54v94.55H858.31V4.11h49.52L948,69.22,988.24,4h49.32v169h-46.4V78.21l-1-.29L947.54,143,904.94,78Z"/><path class="cls-1" d="M195.7,80.66V172.9H149.4V4.08h43.69L262.33,93V4.12h46.23v169H267.66Z"/><path class="cls-1" d="M322.82,4.34c32,0,63.91-3.73,95.3,3,27.64,5.92,48.91,21.09,59.46,48.3,15.56,40.15,3.6,100.85-63.7,115a135.14,135.14,0,0,1-27.3,2.7c-19.66.08-39.32,0-59,0h-4.77Zm46.92,41.24v85.89c10.56-.16,20.85.82,31.08-1,21-3.73,33.61-18.65,34.27-40.48.67-22-10.85-37.52-31.54-42.67C392.53,44.57,381.37,46,369.74,45.58Z"/><path class="cls-2" d="M652.19,25.2l-27.47,33c-2.58-1.86-4.93-3.62-7.34-5.29-11.53-8-24.32-11.64-38.29-10.24-19.27,1.93-34,16.77-37.92,37.65-4.82,25.8,10.09,49.57,34.81,54.61,12.87,2.62,25.5,1.41,37.16-5.68v-20.5H580.28V74.69h77.35v76A106,106,0,0,1,617.32,172c-29.12,8-57.49,6.74-84-8.83-29.64-17.38-45.24-51.27-40.36-86.26,5-35.93,29.63-63.91,64.47-73,32.9-8.63,63-2.61,90.3,17.62C649.14,22.52,650.48,23.76,652.19,25.2Z"/><path class="cls-1" d="M1051.75,173V4.12h135.66V43.66h-89.09V69.31H1179v37.13h-80.77v26.63h90.29V173Z"/><path class="cls-2" d="M46.18,106.35v26.78h90.51V173H0V4.07H135.34V43.86H46.24V69.22H127v37.14Z"/><path class="cls-1" d="M848.77,173.15H798.36L786.1,143.4H720.68L708.74,173H659.28L731.2,2.89h45.59ZM753.65,58.45l-19,47.8h37.66Z"/><path class="cls-2" d="M1201.72,173.14V133.67h39.61v39.47Z"/></g></g></svg>
